<svg xmlns="http://www.w3.org/2000/svg" xmlns:xlink="http://www.w3.org/1999/xlink" width="500" zoomAndPan="magnify" viewBox="0 0 375 374.999991" height="500" preserveAspectRatio="xMidYMid meet" version="1.2"><defs/><g id="16c2049718"><rect x="0" width="375" y="0" height="374.999991" style="fill:#ffffff;fill-opacity:1;stroke:none;"/><rect x="0" width="375" y="0" height="374.999991" style="fill:#000000;fill-opacity:1;stroke:none;"/><g style="fill:#ffffff;fill-opacity:1;"><g transform="translate(84.117185, 196.874987)"><path style="stroke:none" d="M 11.71875 0 L 8.546875 0 L 8.546875 -21.4375 L 0.875 -21.4375 L 0.875 -24.28125 L 19.40625 -24.28125 L 19.40625 -21.4375 L 11.71875 -21.4375 Z M 11.71875 0 "/></g></g><g style="fill:#ffffff;fill-opacity:1;"><g transform="translate(103.897965, 196.874987)"><path style="stroke:none" d="M 6.015625 0 L 2.953125 0 L 2.953125 -25.140625 L 6.015625 -25.140625 L 6.015625 -16.6875 L 5.96875 -14.75 C 6.332031 -15.53125 6.832031 -16.222656 7.46875 -16.828125 C 8.113281 -17.429688 8.875 -17.898438 9.75 -18.234375 C 10.625 -18.566406 11.578125 -18.734375 12.609375 -18.734375 C 15.023438 -18.734375 16.859375 -17.984375 18.109375 -16.484375 C 19.359375 -14.992188 19.984375 -12.789062 19.984375 -9.875 L 19.984375 0 L 16.90625 0 L 16.90625 -9.8125 C 16.90625 -11.914062 16.453125 -13.445312 15.546875 -14.40625 C 14.640625 -15.375 13.394531 -15.859375 11.8125 -15.859375 C 11.050781 -15.859375 10.320312 -15.703125 9.625 -15.390625 C 8.9375 -15.085938 8.320312 -14.65625 7.78125 -14.09375 C 7.238281 -13.539062 6.804688 -12.878906 6.484375 -12.109375 C 6.171875 -11.347656 6.015625 -10.5 6.015625 -9.5625 Z M 6.015625 0 "/></g></g><g style="fill:#ffffff;fill-opacity:1;"><g transform="translate(126.606703, 196.874987)"><path style="stroke:none" d="M 19.671875 -9.546875 C 19.671875 -9.390625 19.664062 -9.222656 19.65625 -9.046875 C 19.65625 -8.878906 19.644531 -8.628906 19.625 -8.296875 L 4.515625 -8.296875 C 4.648438 -7.085938 5.007812 -6.035156 5.59375 -5.140625 C 6.175781 -4.242188 6.90625 -3.554688 7.78125 -3.078125 C 8.664062 -2.597656 9.609375 -2.359375 10.609375 -2.359375 C 11.828125 -2.359375 12.867188 -2.625 13.734375 -3.15625 C 14.609375 -3.6875 15.25 -4.460938 15.65625 -5.484375 L 19.109375 -5.484375 C 18.835938 -4.648438 18.441406 -3.867188 17.921875 -3.140625 C 17.410156 -2.410156 16.785156 -1.773438 16.046875 -1.234375 C 15.316406 -0.691406 14.5 -0.269531 13.59375 0.03125 C 12.6875 0.34375 11.710938 0.5 10.671875 0.5 C 9.347656 0.5 8.125 0.253906 7 -0.234375 C 5.875 -0.734375 4.890625 -1.421875 4.046875 -2.296875 C 3.210938 -3.179688 2.5625 -4.203125 2.09375 -5.359375 C 1.632812 -6.523438 1.40625 -7.773438 1.40625 -9.109375 C 1.40625 -10.441406 1.632812 -11.6875 2.09375 -12.84375 C 2.5625 -14 3.210938 -15.019531 4.046875 -15.90625 C 4.890625 -16.789062 5.875 -17.484375 7 -17.984375 C 8.125 -18.484375 9.347656 -18.734375 10.671875 -18.734375 C 11.984375 -18.734375 13.1875 -18.488281 14.28125 -18 C 15.382812 -17.507812 16.335938 -16.832031 17.140625 -15.96875 C 17.953125 -15.113281 18.578125 -14.132812 19.015625 -13.03125 C 19.453125 -11.9375 19.671875 -10.773438 19.671875 -9.546875 Z M 4.65625 -11.015625 L 16.53125 -11.015625 C 16.476562 -11.660156 16.289062 -12.273438 15.96875 -12.859375 C 15.644531 -13.441406 15.210938 -13.953125 14.671875 -14.390625 C 14.140625 -14.835938 13.523438 -15.1875 12.828125 -15.4375 C 12.128906 -15.695312 11.394531 -15.828125 10.625 -15.828125 C 9.71875 -15.828125 8.851562 -15.644531 8.03125 -15.28125 C 7.207031 -14.914062 6.5 -14.375 5.90625 -13.65625 C 5.3125 -12.945312 4.894531 -12.066406 4.65625 -11.015625 Z M 4.65625 -11.015625 "/></g></g><g style="fill:#ffffff;fill-opacity:1;"><g transform="translate(147.405194, 196.874987)"><path style="stroke:none" d=""/></g></g><g style="fill:#ffffff;fill-opacity:1;"><g transform="translate(156.438702, 196.874987)"><path style="stroke:none" d="M 6.46875 0 L 3.296875 0 L 3.296875 -24.28125 L 13.625 -24.28125 C 14.800781 -24.28125 15.878906 -24.097656 16.859375 -23.734375 C 17.835938 -23.367188 18.6875 -22.847656 19.40625 -22.171875 C 20.132812 -21.503906 20.691406 -20.703125 21.078125 -19.765625 C 21.472656 -18.835938 21.671875 -17.800781 21.671875 -16.65625 C 21.671875 -15.46875 21.453125 -14.394531 21.015625 -13.4375 C 20.578125 -12.476562 19.957031 -11.671875 19.15625 -11.015625 C 18.351562 -10.359375 17.421875 -9.890625 16.359375 -9.609375 L 22.203125 0 L 18.5625 0 L 13.171875 -9.140625 C 13.046875 -9.128906 12.914062 -9.125 12.78125 -9.125 C 12.65625 -9.125 12.523438 -9.125 12.390625 -9.125 L 6.46875 -9.125 Z M 6.46875 -21.4375 L 6.46875 -11.8125 L 13.546875 -11.8125 C 14.503906 -11.832031 15.351562 -12.039062 16.09375 -12.4375 C 16.832031 -12.832031 17.421875 -13.390625 17.859375 -14.109375 C 18.296875 -14.835938 18.515625 -15.679688 18.515625 -16.640625 C 18.515625 -17.566406 18.289062 -18.390625 17.84375 -19.109375 C 17.40625 -19.828125 16.804688 -20.394531 16.046875 -20.8125 C 15.296875 -21.226562 14.445312 -21.4375 13.5 -21.4375 Z M 6.46875 -21.4375 "/></g></g><g style="fill:#ffffff;fill-opacity:1;"><g transform="translate(179.754435, 196.874987)"><path style="stroke:none" d="M 19.671875 -9.546875 C 19.671875 -9.390625 19.664062 -9.222656 19.65625 -9.046875 C 19.65625 -8.878906 19.644531 -8.628906 19.625 -8.296875 L 4.515625 -8.296875 C 4.648438 -7.085938 5.007812 -6.035156 5.59375 -5.140625 C 6.175781 -4.242188 6.90625 -3.554688 7.78125 -3.078125 C 8.664062 -2.597656 9.609375 -2.359375 10.609375 -2.359375 C 11.828125 -2.359375 12.867188 -2.625 13.734375 -3.15625 C 14.609375 -3.6875 15.25 -4.460938 15.65625 -5.484375 L 19.109375 -5.484375 C 18.835938 -4.648438 18.441406 -3.867188 17.921875 -3.140625 C 17.410156 -2.410156 16.785156 -1.773438 16.046875 -1.234375 C 15.316406 -0.691406 14.5 -0.269531 13.59375 0.03125 C 12.6875 0.34375 11.710938 0.5 10.671875 0.5 C 9.347656 0.5 8.125 0.253906 7 -0.234375 C 5.875 -0.734375 4.890625 -1.421875 4.046875 -2.296875 C 3.210938 -3.179688 2.5625 -4.203125 2.09375 -5.359375 C 1.632812 -6.523438 1.40625 -7.773438 1.40625 -9.109375 C 1.40625 -10.441406 1.632812 -11.6875 2.09375 -12.84375 C 2.5625 -14 3.210938 -15.019531 4.046875 -15.90625 C 4.890625 -16.789062 5.875 -17.484375 7 -17.984375 C 8.125 -18.484375 9.347656 -18.734375 10.671875 -18.734375 C 11.984375 -18.734375 13.1875 -18.488281 14.28125 -18 C 15.382812 -17.507812 16.335938 -16.832031 17.140625 -15.96875 C 17.953125 -15.113281 18.578125 -14.132812 19.015625 -13.03125 C 19.453125 -11.9375 19.671875 -10.773438 19.671875 -9.546875 Z M 4.65625 -11.015625 L 16.53125 -11.015625 C 16.476562 -11.660156 16.289062 -12.273438 15.96875 -12.859375 C 15.644531 -13.441406 15.210938 -13.953125 14.671875 -14.390625 C 14.140625 -14.835938 13.523438 -15.1875 12.828125 -15.4375 C 12.128906 -15.695312 11.394531 -15.828125 10.625 -15.828125 C 9.71875 -15.828125 8.851562 -15.644531 8.03125 -15.28125 C 7.207031 -14.914062 6.5 -14.375 5.90625 -13.65625 C 5.3125 -12.945312 4.894531 -12.066406 4.65625 -11.015625 Z M 4.65625 -11.015625 "/></g></g><g style="fill:#ffffff;fill-opacity:1;"><g transform="translate(199.945805, 196.874987)"><path style="stroke:none" d="M 10.53125 0 L 7.625 0 L 0.234375 -18.203125 L 3.5 -18.203125 L 8.640625 -5.359375 L 9.09375 -3.734375 L 9.515625 -5.359375 L 14.65625 -18.203125 L 17.9375 -18.203125 Z M 10.53125 0 "/></g></g><g style="fill:#ffffff;fill-opacity:1;"><g transform="translate(218.119937, 196.874987)"><path style="stroke:none" d="M 4.46875 -21.765625 C 3.832031 -21.765625 3.328125 -21.953125 2.953125 -22.328125 C 2.578125 -22.710938 2.390625 -23.175781 2.390625 -23.71875 C 2.390625 -24.257812 2.578125 -24.71875 2.953125 -25.09375 C 3.328125 -25.476562 3.835938 -25.671875 4.484375 -25.671875 C 5.140625 -25.671875 5.65625 -25.476562 6.03125 -25.09375 C 6.40625 -24.71875 6.59375 -24.257812 6.59375 -23.71875 C 6.59375 -23.175781 6.40625 -22.710938 6.03125 -22.328125 C 5.65625 -21.953125 5.132812 -21.765625 4.46875 -21.765625 Z M 6.015625 0 L 2.953125 0 L 2.953125 -18.203125 L 6.015625 -18.203125 Z M 6.015625 0 "/></g></g><g style="fill:#ffffff;fill-opacity:1;"><g transform="translate(227.082034, 196.874987)"><path style="stroke:none" d="M 19.671875 -9.546875 C 19.671875 -9.390625 19.664062 -9.222656 19.65625 -9.046875 C 19.65625 -8.878906 19.644531 -8.628906 19.625 -8.296875 L 4.515625 -8.296875 C 4.648438 -7.085938 5.007812 -6.035156 5.59375 -5.140625 C 6.175781 -4.242188 6.90625 -3.554688 7.78125 -3.078125 C 8.664062 -2.597656 9.609375 -2.359375 10.609375 -2.359375 C 11.828125 -2.359375 12.867188 -2.625 13.734375 -3.15625 C 14.609375 -3.6875 15.25 -4.460938 15.65625 -5.484375 L 19.109375 -5.484375 C 18.835938 -4.648438 18.441406 -3.867188 17.921875 -3.140625 C 17.410156 -2.410156 16.785156 -1.773438 16.046875 -1.234375 C 15.316406 -0.691406 14.5 -0.269531 13.59375 0.03125 C 12.6875 0.34375 11.710938 0.5 10.671875 0.5 C 9.347656 0.5 8.125 0.253906 7 -0.234375 C 5.875 -0.734375 4.890625 -1.421875 4.046875 -2.296875 C 3.210938 -3.179688 2.5625 -4.203125 2.09375 -5.359375 C 1.632812 -6.523438 1.40625 -7.773438 1.40625 -9.109375 C 1.40625 -10.441406 1.632812 -11.6875 2.09375 -12.84375 C 2.5625 -14 3.210938 -15.019531 4.046875 -15.90625 C 4.890625 -16.789062 5.875 -17.484375 7 -17.984375 C 8.125 -18.484375 9.347656 -18.734375 10.671875 -18.734375 C 11.984375 -18.734375 13.1875 -18.488281 14.28125 -18 C 15.382812 -17.507812 16.335938 -16.832031 17.140625 -15.96875 C 17.953125 -15.113281 18.578125 -14.132812 19.015625 -13.03125 C 19.453125 -11.9375 19.671875 -10.773438 19.671875 -9.546875 Z M 4.65625 -11.015625 L 16.53125 -11.015625 C 16.476562 -11.660156 16.289062 -12.273438 15.96875 -12.859375 C 15.644531 -13.441406 15.210938 -13.953125 14.671875 -14.390625 C 14.140625 -14.835938 13.523438 -15.1875 12.828125 -15.4375 C 12.128906 -15.695312 11.394531 -15.828125 10.625 -15.828125 C 9.71875 -15.828125 8.851562 -15.644531 8.03125 -15.28125 C 7.207031 -14.914062 6.5 -14.375 5.90625 -13.65625 C 5.3125 -12.945312 4.894531 -12.066406 4.65625 -11.015625 Z M 4.65625 -11.015625 "/></g></g><g style="fill:#ffffff;fill-opacity:1;"><g transform="translate(247.273404, 196.874987)"><path style="stroke:none" d="M 9.3125 0 L 6.5 0 L 0.234375 -18.203125 L 3.53125 -18.203125 L 7.859375 -5.046875 L 8.1875 -3.96875 L 8.234375 -3.96875 L 8.59375 -5.03125 L 12.734375 -18.203125 L 15.078125 -18.203125 L 19.109375 -5.265625 L 19.515625 -3.96875 L 19.5625 -3.96875 L 20.046875 -5.3125 L 24.28125 -18.203125 L 27.53125 -18.203125 L 21.265625 0 L 18.375 0 L 13.875 -13.640625 L 13.859375 -13.640625 Z M 9.3125 0 "/></g></g><g style="fill:#ffffff;fill-opacity:1;"><g transform="translate(277.535142, 194.624987)"><path style="stroke:none" d="M 16.640625 4.640625 L 0 4.640625 L 0 2.046875 L 16.640625 2.046875 Z M 16.640625 4.640625 "/></g></g></g></svg>