<svg xmlns="http://www.w3.org/2000/svg" xmlns:xlink="http://www.w3.org/1999/xlink" width="1200" zoomAndPan="magnify" viewBox="0 0 900 299.999988" height="400" preserveAspectRatio="xMidYMid meet" version="1.2"><defs/><g id="b93b13179c"><rect x="0" width="900" y="0" height="299.999988" style="fill:#ffffff;fill-opacity:1;stroke:none;"/><rect x="0" width="900" y="0" height="299.999988" style="fill:#000000;fill-opacity:1;stroke:none;"/><g style="fill:#ffffff;fill-opacity:1;"><g transform="translate(124.805409, 187.083431)"><path style="stroke:none" d="M 41.375 0 L 30.203125 0 L 30.203125 -75.734375 L 3.09375 -75.734375 L 3.09375 -85.765625 L 68.546875 -85.765625 L 68.546875 -75.734375 L 41.375 -75.734375 Z M 41.375 0 "/></g></g><g style="fill:#ffffff;fill-opacity:1;"><g transform="translate(194.666323, 187.083431)"><path style="stroke:none" d="M 21.25 0 L 10.40625 0 L 10.40625 -88.796875 L 21.25 -88.796875 L 21.25 -58.96875 L 21.0625 -52.09375 C 22.363281 -54.863281 24.148438 -57.3125 26.421875 -59.4375 C 28.691406 -61.5625 31.367188 -63.210938 34.453125 -64.390625 C 37.546875 -65.566406 40.90625 -66.15625 44.53125 -66.15625 C 53.0625 -66.15625 59.53125 -63.515625 63.9375 -58.234375 C 68.351562 -52.960938 70.5625 -45.175781 70.5625 -34.875 L 70.5625 0 L 59.71875 0 L 59.71875 -34.6875 C 59.71875 -42.082031 58.117188 -47.484375 54.921875 -50.890625 C 51.734375 -54.296875 47.34375 -56 41.75 -56 C 39.0625 -56 36.484375 -55.460938 34.015625 -54.390625 C 31.554688 -53.316406 29.367188 -51.789062 27.453125 -49.8125 C 25.546875 -47.84375 24.035156 -45.5 22.921875 -42.78125 C 21.804688 -40.070312 21.25 -37.078125 21.25 -33.796875 Z M 21.25 0 "/></g></g><g style="fill:#ffffff;fill-opacity:1;"><g transform="translate(274.868079, 187.083431)"><path style="stroke:none" d="M 69.5 -33.734375 C 69.5 -33.191406 69.488281 -32.613281 69.46875 -32 C 69.445312 -31.394531 69.394531 -30.503906 69.3125 -29.328125 L 15.953125 -29.328125 C 16.421875 -25.035156 17.679688 -21.3125 19.734375 -18.15625 C 21.796875 -15.007812 24.378906 -12.582031 27.484375 -10.875 C 30.597656 -9.175781 33.921875 -8.328125 37.453125 -8.328125 C 41.785156 -8.328125 45.484375 -9.257812 48.546875 -11.125 C 51.617188 -13 53.875 -15.742188 55.3125 -19.359375 L 67.484375 -19.359375 C 66.554688 -16.421875 65.175781 -13.664062 63.34375 -11.09375 C 61.519531 -8.53125 59.3125 -6.289062 56.71875 -4.375 C 54.132812 -2.46875 51.234375 -0.96875 48.015625 0.125 C 44.804688 1.21875 41.375 1.765625 37.71875 1.765625 C 33.050781 1.765625 28.726562 0.894531 24.75 -0.84375 C 20.78125 -2.59375 17.3125 -5.019531 14.34375 -8.125 C 11.382812 -11.238281 9.082031 -14.84375 7.4375 -18.9375 C 5.800781 -23.039062 4.984375 -27.445312 4.984375 -32.15625 C 4.984375 -36.863281 5.800781 -41.269531 7.4375 -45.375 C 9.082031 -49.476562 11.382812 -53.082031 14.34375 -56.1875 C 17.3125 -59.300781 20.78125 -61.738281 24.75 -63.5 C 28.726562 -65.269531 33.050781 -66.15625 37.71875 -66.15625 C 42.34375 -66.15625 46.597656 -65.289062 50.484375 -63.5625 C 54.367188 -61.84375 57.726562 -59.46875 60.5625 -56.4375 C 63.40625 -53.414062 65.601562 -49.957031 67.15625 -46.0625 C 68.71875 -42.175781 69.5 -38.066406 69.5 -33.734375 Z M 16.453125 -38.90625 L 58.390625 -38.90625 C 58.222656 -41.175781 57.5625 -43.34375 56.40625 -45.40625 C 55.25 -47.46875 53.722656 -49.285156 51.828125 -50.859375 C 49.941406 -52.429688 47.769531 -53.671875 45.3125 -54.578125 C 42.851562 -55.484375 40.253906 -55.9375 37.515625 -55.9375 C 34.328125 -55.9375 31.28125 -55.285156 28.375 -53.984375 C 25.476562 -52.679688 22.976562 -50.765625 20.875 -48.234375 C 18.769531 -45.710938 17.296875 -42.601562 16.453125 -38.90625 Z M 16.453125 -38.90625 "/></g></g><g style="fill:#ffffff;fill-opacity:1;"><g transform="translate(348.323304, 187.083431)"><path style="stroke:none" d=""/></g></g><g style="fill:#ffffff;fill-opacity:1;"><g transform="translate(380.227462, 187.083431)"><path style="stroke:none" d="M 22.828125 0 L 11.671875 0 L 11.671875 -85.765625 L 48.125 -85.765625 C 52.28125 -85.765625 56.09375 -85.125 59.5625 -83.84375 C 63.03125 -82.5625 66.035156 -80.734375 68.578125 -78.359375 C 71.117188 -75.984375 73.082031 -73.144531 74.46875 -69.84375 C 75.863281 -66.539062 76.5625 -62.875 76.5625 -58.84375 C 76.5625 -54.632812 75.78125 -50.835938 74.21875 -47.453125 C 72.664062 -44.066406 70.476562 -41.21875 67.65625 -38.90625 C 64.84375 -36.59375 61.546875 -34.929688 57.765625 -33.921875 L 78.453125 0 L 65.59375 0 L 46.546875 -32.296875 C 46.078125 -32.242188 45.609375 -32.21875 45.140625 -32.21875 C 44.679688 -32.21875 44.222656 -32.21875 43.765625 -32.21875 L 22.828125 -32.21875 Z M 22.828125 -75.734375 L 22.828125 -41.75 L 47.859375 -41.75 C 51.222656 -41.789062 54.21875 -42.515625 56.84375 -43.921875 C 59.476562 -45.328125 61.5625 -47.3125 63.09375 -49.875 C 64.625 -52.445312 65.390625 -55.414062 65.390625 -58.78125 C 65.390625 -62.050781 64.613281 -64.957031 63.0625 -67.5 C 61.507812 -70.050781 59.394531 -72.0625 56.71875 -73.53125 C 54.050781 -75 51.035156 -75.734375 47.671875 -75.734375 Z M 22.828125 -75.734375 "/></g></g><g style="fill:#ffffff;fill-opacity:1;"><g transform="translate(462.572976, 187.083431)"><path style="stroke:none" d="M 69.5 -33.734375 C 69.5 -33.191406 69.488281 -32.613281 69.46875 -32 C 69.445312 -31.394531 69.394531 -30.503906 69.3125 -29.328125 L 15.953125 -29.328125 C 16.421875 -25.035156 17.679688 -21.3125 19.734375 -18.15625 C 21.796875 -15.007812 24.378906 -12.582031 27.484375 -10.875 C 30.597656 -9.175781 33.921875 -8.328125 37.453125 -8.328125 C 41.785156 -8.328125 45.484375 -9.257812 48.546875 -11.125 C 51.617188 -13 53.875 -15.742188 55.3125 -19.359375 L 67.484375 -19.359375 C 66.554688 -16.421875 65.175781 -13.664062 63.34375 -11.09375 C 61.519531 -8.53125 59.3125 -6.289062 56.71875 -4.375 C 54.132812 -2.46875 51.234375 -0.96875 48.015625 0.125 C 44.804688 1.21875 41.375 1.765625 37.71875 1.765625 C 33.050781 1.765625 28.726562 0.894531 24.75 -0.84375 C 20.78125 -2.59375 17.3125 -5.019531 14.34375 -8.125 C 11.382812 -11.238281 9.082031 -14.84375 7.4375 -18.9375 C 5.800781 -23.039062 4.984375 -27.445312 4.984375 -32.15625 C 4.984375 -36.863281 5.800781 -41.269531 7.4375 -45.375 C 9.082031 -49.476562 11.382812 -53.082031 14.34375 -56.1875 C 17.3125 -59.300781 20.78125 -61.738281 24.75 -63.5 C 28.726562 -65.269531 33.050781 -66.15625 37.71875 -66.15625 C 42.34375 -66.15625 46.597656 -65.289062 50.484375 -63.5625 C 54.367188 -61.84375 57.726562 -59.46875 60.5625 -56.4375 C 63.40625 -53.414062 65.601562 -49.957031 67.15625 -46.0625 C 68.71875 -42.175781 69.5 -38.066406 69.5 -33.734375 Z M 16.453125 -38.90625 L 58.390625 -38.90625 C 58.222656 -41.175781 57.5625 -43.34375 56.40625 -45.40625 C 55.25 -47.46875 53.722656 -49.285156 51.828125 -50.859375 C 49.941406 -52.429688 47.769531 -53.671875 45.3125 -54.578125 C 42.851562 -55.484375 40.253906 -55.9375 37.515625 -55.9375 C 34.328125 -55.9375 31.28125 -55.285156 28.375 -53.984375 C 25.476562 -52.679688 22.976562 -50.765625 20.875 -48.234375 C 18.769531 -45.710938 17.296875 -42.601562 16.453125 -38.90625 Z M 16.453125 -38.90625 "/></g></g><g style="fill:#ffffff;fill-opacity:1;"><g transform="translate(533.883999, 187.083431)"><path style="stroke:none" d="M 37.203125 0 L 26.921875 0 L 0.8125 -64.328125 L 12.359375 -64.328125 L 30.515625 -18.921875 L 32.09375 -13.1875 L 33.609375 -18.921875 L 51.78125 -64.328125 L 63.375 -64.328125 Z M 37.203125 0 "/></g></g><g style="fill:#ffffff;fill-opacity:1;"><g transform="translate(598.070626, 187.083431)"><path style="stroke:none" d="M 15.765625 -76.875 C 13.535156 -76.875 11.757812 -77.546875 10.4375 -78.890625 C 9.113281 -80.234375 8.453125 -81.875 8.453125 -83.8125 C 8.453125 -85.707031 9.113281 -87.328125 10.4375 -88.671875 C 11.757812 -90.015625 13.554688 -90.6875 15.828125 -90.6875 C 18.140625 -90.6875 19.957031 -90.015625 21.28125 -88.671875 C 22.601562 -87.328125 23.265625 -85.707031 23.265625 -83.8125 C 23.265625 -81.875 22.601562 -80.234375 21.28125 -78.890625 C 19.957031 -77.546875 18.117188 -76.875 15.765625 -76.875 Z M 21.25 0 L 10.40625 0 L 10.40625 -64.328125 L 21.25 -64.328125 Z M 21.25 0 "/></g></g><g style="fill:#ffffff;fill-opacity:1;"><g transform="translate(629.722577, 187.083431)"><path style="stroke:none" d="M 69.5 -33.734375 C 69.5 -33.191406 69.488281 -32.613281 69.46875 -32 C 69.445312 -31.394531 69.394531 -30.503906 69.3125 -29.328125 L 15.953125 -29.328125 C 16.421875 -25.035156 17.679688 -21.3125 19.734375 -18.15625 C 21.796875 -15.007812 24.378906 -12.582031 27.484375 -10.875 C 30.597656 -9.175781 33.921875 -8.328125 37.453125 -8.328125 C 41.785156 -8.328125 45.484375 -9.257812 48.546875 -11.125 C 51.617188 -13 53.875 -15.742188 55.3125 -19.359375 L 67.484375 -19.359375 C 66.554688 -16.421875 65.175781 -13.664062 63.34375 -11.09375 C 61.519531 -8.53125 59.3125 -6.289062 56.71875 -4.375 C 54.132812 -2.46875 51.234375 -0.96875 48.015625 0.125 C 44.804688 1.21875 41.375 1.765625 37.71875 1.765625 C 33.050781 1.765625 28.726562 0.894531 24.75 -0.84375 C 20.78125 -2.59375 17.3125 -5.019531 14.34375 -8.125 C 11.382812 -11.238281 9.082031 -14.84375 7.4375 -18.9375 C 5.800781 -23.039062 4.984375 -27.445312 4.984375 -32.15625 C 4.984375 -36.863281 5.800781 -41.269531 7.4375 -45.375 C 9.082031 -49.476562 11.382812 -53.082031 14.34375 -56.1875 C 17.3125 -59.300781 20.78125 -61.738281 24.75 -63.5 C 28.726562 -65.269531 33.050781 -66.15625 37.71875 -66.15625 C 42.34375 -66.15625 46.597656 -65.289062 50.484375 -63.5625 C 54.367188 -61.84375 57.726562 -59.46875 60.5625 -56.4375 C 63.40625 -53.414062 65.601562 -49.957031 67.15625 -46.0625 C 68.71875 -42.175781 69.5 -38.066406 69.5 -33.734375 Z M 16.453125 -38.90625 L 58.390625 -38.90625 C 58.222656 -41.175781 57.5625 -43.34375 56.40625 -45.40625 C 55.25 -47.46875 53.722656 -49.285156 51.828125 -50.859375 C 49.941406 -52.429688 47.769531 -53.671875 45.3125 -54.578125 C 42.851562 -55.484375 40.253906 -55.9375 37.515625 -55.9375 C 34.328125 -55.9375 31.28125 -55.285156 28.375 -53.984375 C 25.476562 -52.679688 22.976562 -50.765625 20.875 -48.234375 C 18.769531 -45.710938 17.296875 -42.601562 16.453125 -38.90625 Z M 16.453125 -38.90625 "/></g></g><g style="fill:#ffffff;fill-opacity:1;"><g transform="translate(701.0336, 187.083431)"><path style="stroke:none" d="M 32.921875 0 L 22.953125 0 L 0.8125 -64.328125 L 12.484375 -64.328125 L 27.75 -17.84375 L 28.953125 -14 L 29.078125 -14 L 30.328125 -17.78125 L 44.96875 -64.328125 L 53.296875 -64.328125 L 67.484375 -18.609375 L 68.921875 -14 L 69.125 -14 L 70.828125 -18.796875 L 85.765625 -64.328125 L 97.25 -64.328125 L 75.109375 0 L 64.890625 0 L 49 -48.1875 L 48.9375 -48.1875 Z M 32.921875 0 "/></g></g><g style="fill:#ffffff;fill-opacity:1;"><g transform="translate(807.910766, 179.136984)"><path style="stroke:none" d="M 58.78125 16.390625 L 0 16.390625 L 0 7.25 L 58.78125 7.25 Z M 58.78125 16.390625 "/></g></g><g style="fill:#ffffff;fill-opacity:1;"><g transform="translate(32.69774, 196.354294)"><path style="stroke:none" d="M 82.9375 -40.546875 L 10.375 -6.328125 L 10.375 -20.84375 L 65 -45.46875 L 10.375 -70.265625 L 10.375 -84.703125 L 82.9375 -50.578125 Z M 82.9375 -40.546875 "/></g></g></g></svg>